<?xml version="1.0" standalone="no"?>
<!DOCTYPE svg PUBLIC "-//W3C//DTD SVG 20010904//EN"
 "http://www.w3.org/TR/2001/REC-SVG-20010904/DTD/svg10.dtd">
<svg version="1.0" xmlns="http://www.w3.org/2000/svg"
 width="94.000000pt" height="102.000000pt" viewBox="0 0 94.000000 102.000000"
 preserveAspectRatio="xMidYMid meet">

<g transform="translate(0.000000,102.000000) scale(0.100000,-0.100000)"
fill="#000000" stroke="none">
<path d="M520 966 c-183 -41 -270 -189 -186 -316 25 -38 25 -40 11 -87 -20
-65 -19 -80 6 -94 18 -9 33 -5 93 24 63 32 79 36 146 35 90 -1 140 12 202 51
58 37 99 97 105 154 17 152 -184 277 -377 233z m199 -53 c57 -20 117 -75 131
-119 24 -72 -18 -151 -104 -197 -34 -18 -58 -22 -146 -23 -100 -1 -108 -3
-154 -33 -71 -44 -75 -42 -58 27 16 58 15 59 -10 93 -50 66 -48 125 4 185 74
83 213 111 337 67z"/>
<path d="M470 830 c0 -19 7 -20 120 -20 113 0 120 1 120 20 0 19 -7 20 -120
20 -113 0 -120 -1 -120 -20z"/>
<path d="M470 750 c0 -19 7 -20 120 -20 113 0 120 1 120 20 0 19 -7 20 -120
20 -113 0 -120 -1 -120 -20z"/>
<path d="M470 670 c0 -18 7 -20 70 -20 63 0 70 2 70 20 0 18 -7 20 -70 20 -63
0 -70 -2 -70 -20z"/>
<path d="M150 576 c-66 -22 -97 -103 -65 -170 52 -110 215 -72 215 50 0 95
-66 148 -150 120z m90 -56 c31 -31 27 -93 -6 -119 -56 -44 -114 -13 -114 61 0
24 7 49 17 60 22 24 77 24 103 -2z"/>
<path d="M486 411 c-3 -4 -19 -43 -36 -86 -23 -60 -27 -81 -17 -87 22 -14 25
-9 54 67 l28 75 164 0 c126 0 162 -3 158 -12 -3 -7 -21 -55 -42 -106 l-37 -92
-104 0 c-97 0 -104 -1 -104 -20 0 -19 7 -20 114 -20 79 0 117 4 124 13 15 18
102 239 102 259 0 17 -14 18 -199 18 -110 0 -202 -4 -205 -9z"/>
<path d="M113 310 c-45 -18 -63 -66 -63 -167 0 -85 2 -93 19 -93 17 0 19 10
23 96 3 86 5 98 27 115 15 12 38 19 65 18 38 0 45 -5 94 -65 l53 -64 67 0 c63
0 65 -1 49 -17 -12 -12 -38 -19 -88 -21 -70 -4 -71 -4 -109 33 -34 33 -41 36
-55 25 -14 -12 -11 -18 27 -57 l42 -43 298 0 c291 0 298 0 298 20 0 19 -7 20
-184 20 l-184 0 5 40 6 40 -75 0 -76 0 -57 65 c-56 65 -57 65 -108 64 -29 0
-62 -4 -74 -9z"/>
</g>
</svg>
