<?xml version="1.0" standalone="no"?>
<!DOCTYPE svg PUBLIC "-//W3C//DTD SVG 20010904//EN"
 "http://www.w3.org/TR/2001/REC-SVG-20010904/DTD/svg10.dtd">
<svg version="1.0" xmlns="http://www.w3.org/2000/svg"
 width="119.000000pt" height="108.000000pt" viewBox="0 0 119.000000 108.000000"
 preserveAspectRatio="xMidYMid meet">

<g transform="translate(0.000000,108.000000) scale(0.100000,-0.100000)"
fill="#000000" stroke="none">
<path d="M404 1009 c-15 -17 -20 -40 -23 -110 -4 -107 3 -142 27 -137 14 3 18
20 22 113 l5 110 305 3 c168 1 315 0 328 -3 l22 -5 0 -254 c0 -222 -2 -255
-16 -260 -9 -3 -68 -6 -132 -6 l-117 -1 -55 -49 -55 -50 -3 50 -3 50 -105 0
c-97 0 -104 -1 -104 -20 0 -18 7 -20 85 -20 l84 0 3 -67 c2 -42 8 -68 16 -71
7 -2 45 28 85 67 l74 71 125 0 c108 0 127 2 141 18 15 16 17 51 17 289 0 249
-1 271 -18 286 -17 15 -56 17 -354 17 -328 0 -335 0 -354 -21z"/>
<path d="M615 886 c-29 -13 -55 -51 -55 -82 0 -31 30 -72 60 -83 85 -29 154
81 90 143 -33 32 -59 38 -95 22z m63 -48 c16 -16 15 -53 -3 -68 -19 -16 -45
-10 -61 15 -26 39 31 86 64 53z"/>
<path d="M731 740 c-66 -82 -121 -156 -121 -164 0 -27 19 -27 44 1 78 89 236
289 236 300 0 7 -8 13 -19 13 -12 0 -62 -54 -140 -150z"/>
<path d="M314 733 c-12 -2 -34 -18 -50 -34 -26 -27 -29 -37 -29 -99 0 -65 2
-72 31 -101 35 -34 85 -43 127 -20 75 40 77 203 3 240 -29 14 -57 19 -82 14z
m72 -64 c26 -29 26 -109 0 -138 -11 -12 -31 -21 -46 -21 -41 0 -65 33 -65 92
0 40 5 53 24 69 30 25 63 24 87 -2z"/>
<path d="M823 732 c-59 -9 -83 -103 -38 -147 57 -58 145 -21 145 60 0 60 -45
97 -107 87z m48 -52 c37 -20 15 -80 -30 -80 -14 0 -41 29 -41 45 0 16 27 45
41 45 6 0 19 -5 30 -10z"/>
<path d="M213 425 c-71 -30 -88 -139 -38 -235 16 -30 31 -77 35 -105 6 -59 33
-71 38 -17 4 39 17 41 48 7 23 -25 28 -26 116 -23 91 3 93 3 113 34 11 17 32
36 47 42 35 13 63 75 47 104 -8 14 -7 28 1 49 18 42 -8 69 -64 69 -35 0 -47 6
-77 39 -21 22 -50 41 -69 44 -55 11 -163 7 -197 -8z m221 -54 c16 -18 16 -19
-9 -25 -20 -5 -33 -21 -51 -61 -14 -30 -29 -55 -32 -55 -16 1 -31 17 -45 53
-9 20 -21 37 -27 37 -34 0 -14 -87 27 -119 18 -15 23 -26 18 -41 -14 -43 -66
-18 -100 50 -31 61 -32 118 -4 154 19 25 25 26 113 26 78 0 96 -3 110 -19z
m136 -91 c-6 -12 -21 -20 -35 -20 -59 0 -117 -123 -65 -137 44 -12 16 -23 -55
-23 -41 0 -75 2 -75 4 0 2 20 47 45 100 l44 96 76 0 c73 0 75 -1 65 -20z m10
-74 c0 -23 -17 -36 -46 -36 -36 0 -42 8 -22 28 11 11 68 18 68 8z"/>
</g>
</svg>
