<?xml version="1.0" standalone="no"?>
<!DOCTYPE svg PUBLIC "-//W3C//DTD SVG 20010904//EN"
 "http://www.w3.org/TR/2001/REC-SVG-20010904/DTD/svg10.dtd">
<svg version="1.0" xmlns="http://www.w3.org/2000/svg"
 width="105.000000pt" height="102.000000pt" viewBox="0 0 105.000000 102.000000"
 preserveAspectRatio="xMidYMid meet">

<g transform="translate(0.000000,102.000000) scale(0.100000,-0.100000)"
fill="#000000" stroke="none">
<path d="M605 938 c-9 -58 -45 -340 -45 -359 0 -26 23 -24 77 8 52 30 58 26
69 -46 16 -108 -19 -219 -97 -300 -58 -60 -135 -94 -229 -101 -58 -4 -75 -9
-78 -21 -4 -21 61 -48 143 -60 183 -26 382 78 465 244 67 133 65 254 -4 418
-5 11 7 24 44 47 29 18 50 38 48 44 -5 14 -342 157 -370 158 -12 0 -19 -11
-23 -32z m186 -74 c74 -31 136 -58 137 -59 2 -2 -14 -13 -37 -25 -23 -11 -41
-25 -41 -32 0 -6 12 -35 26 -64 76 -155 46 -336 -76 -463 -81 -84 -227 -139
-325 -121 -30 5 -29 5 15 19 141 42 251 188 258 342 4 86 -18 186 -44 196 -9
3 -33 -4 -55 -16 -36 -21 -39 -21 -39 -4 0 41 34 283 40 283 4 0 67 -25 141
-56z"/>
<path d="M416 949 c-75 -12 -174 -66 -233 -125 -173 -178 -173 -462 1 -633 48
-47 57 -53 71 -41 14 12 13 16 -15 45 l-30 31 51 16 51 17 19 -45 c21 -46 25
-49 47 -35 11 6 10 15 -4 44 -10 20 -15 39 -13 42 3 2 31 7 62 11 l57 7 0 -32
c0 -26 4 -31 25 -31 21 0 25 5 25 30 0 28 2 30 40 30 33 0 40 3 40 20 0 17 -7
20 -40 20 l-40 0 0 85 0 85 50 0 c43 0 50 3 50 20 0 17 -7 20 -50 20 l-50 0 0
195 c0 188 1 195 20 195 13 0 20 7 20 20 0 18 -6 20 -52 19 -29 -1 -75 -5
-102 -10z m64 -126 l0 -88 -60 3 c-37 2 -60 8 -60 15 1 41 83 157 111 157 5 0
9 -39 9 -87z m-115 42 c-13 -20 -29 -52 -36 -72 -12 -38 -24 -40 -94 -13 l-30
12 35 29 c33 28 125 79 142 79 4 0 -3 -16 -17 -35z m-70 -180 c-3 -16 -9 -58
-12 -92 l-6 -63 -93 0 -93 0 5 33 c10 59 34 122 59 158 l24 36 61 -21 c60 -20
61 -22 55 -51z m154 9 l31 -6 0 -79 0 -79 -81 0 -82 0 6 60 c11 105 14 110 57
110 21 0 52 -3 69 -6z m-162 -299 c7 -49 9 -92 5 -96 -8 -7 -101 -39 -114 -39
-23 0 -96 199 -82 222 3 5 44 7 92 6 l86 -3 13 -90z m193 10 c0 -83 -1 -85
-24 -85 -13 0 -44 -3 -68 -6 l-46 -6 -11 64 c-6 36 -11 77 -11 91 l0 27 80 0
80 0 0 -85z"/>
</g>
</svg>
