<?xml version="1.0" standalone="no"?>
<!DOCTYPE svg PUBLIC "-//W3C//DTD SVG 20010904//EN"
 "http://www.w3.org/TR/2001/REC-SVG-20010904/DTD/svg10.dtd">
<svg version="1.0" xmlns="http://www.w3.org/2000/svg"
 width="165.000000pt" height="195.000000pt" viewBox="0 0 165.000000 195.000000"
 preserveAspectRatio="xMidYMid meet">

<g transform="translate(0.000000,195.000000) scale(0.100000,-0.100000)"
fill="#000000" stroke="none">
<path d="M1410 1444 c-14 -9 -185 -176 -380 -370 -266 -265 -362 -354 -379
-354 -17 0 -63 38 -160 134 -112 110 -143 136 -174 141 -109 21 -190 -88 -142
-189 9 -18 102 -119 208 -223 149 -148 200 -193 229 -201 81 -22 78 -25 541
436 236 235 435 439 443 454 31 59 9 145 -46 173 -38 20 -109 19 -140 -1z
m104 -80 c9 -8 16 -23 16 -32 0 -22 -839 -861 -869 -869 -20 -5 -49 21 -213
183 -104 104 -194 197 -199 207 -15 26 6 57 38 57 22 0 61 -33 188 -160 89
-88 168 -160 176 -160 7 0 192 178 409 395 275 275 402 395 417 395 12 0 29
-7 37 -16z"/>
</g>
</svg>
